{"title":"Jack The Giant Slayer (2013)CAM XVID MP3-BHOOM","uid":8266555,"size":725449635,"categoryP":"video","categoryS":"movies","magnet":"?xt=urn:btih:bd0cfcfaafbd0357f53623b3cdfc094f94a6945b&amp;dn=Jack+The+Giant+Slayer+%282013%29CAM+XVID+MP3-BHOOM&amp;tr=udp%3A%2F%2Ftracker.openbittorrent.com%3A80&amp;tr=udp%3A%2F%2Fopen.demonii.com%3A1337&amp;tr=udp%3A%2F%2Ftracker.coppersurfer.tk%3A6969&amp;tr=udp%3A%2F%2Fexodus.desync.com%3A6969","seeders":1,"leechers":0,"uploader":"Gh0stNet","files":2,"time":1363480438,"description":"General\nComplete name                            : Jack The Giant Slayer (2013)CAM XVID MP3-BHOOM.avi\nFormat                                   : AVI\nFormat/Info                              : Audio Video Interleave\nFile size                                : 692 MiB\nDuration                                 : 1h 43mn\nOverall bit rate mode                    : Variable\nOverall bit rate                         : 934 Kbps\n\nVideo\nID                                       : 0\nFormat                                   : MPEG-4 Visual\nFormat profile                           : Advanced Simple@L5\nFormat settings, BVOP                    : 2\nFormat settings, QPel                    : Yes\nFormat settings, GMC                     : No warppoints\nFormat settings, Matrix                  : Default (H.263)\nCodec ID                                 : XVID\nCodec ID/Hint                            : XviD\nDuration                                 : 1h 43mn\nBit rate                                 : 801 Kbps\nWidth                                    : 672 pixels\nHeight                                   : 352 pixels\nDisplay aspect ratio                     : 1.909\nFrame rate                               : 29.970 fps\nColor space                              : YUV\nChroma subsampling                       : 4:2:0\nBit depth                                : 8 bits\nScan type                                : Progressive\nCompression mode                         : Lossy\nBits/(Pixel*Frame)                       : 0.113\nStream size                              : 593 MiB (86%)\n\nAudio\nID                                       : 1\nFormat                                   : MPEG Audio\nFormat version                           : Version 1\nFormat profile                           : Layer 3\nMode                                     : Joint stereo\nMode extension                           : MS Stereo\nCodec ID                                 : 55\nCodec ID/Hint                            : MP3\nDuration                                 : 1h 43mn\nBit rate mode                            : Variable\nBit rate                                 : 119 Kbps\nNominal bit rate                         : 128 Kbps\nChannel(s)                               : 2 channels\nSampling rate                            : 48.0 KHz\nCompression mode                         : Lossy\nStream size                              : 88.3 MiB (13%)\nAlignment                                : Aligned on interleaves\n\nScreens:\n","torrent":{"xt":"urn:btih:bd0cfcfaafbd0357f53623b3cdfc094f94a6945b","amp;dn":"Jack+The+Giant+Slayer+%282013%29CAM+XVID+MP3-BHOOM","amp;tr":["udp%3A%2F%2Ftracker.openbittorrent.com%3A80","udp%3A%2F%2Fopen.demonii.com%3A1337","udp%3A%2F%2Ftracker.coppersurfer.tk%3A6969","udp%3A%2F%2Fexodus.desync.com%3A6969"],"infoHash":"bd0cfcfaafbd0357f53623b3cdfc094f94a6945b","infoHashBuffer":{"type":"Buffer","data":[189,12,252,250,175,189,3,87,245,54,35,179,205,252,9,79,148,166,148,91]},"announce":[],"urlList":[]}}